<?xml version="1.0" encoding="utf-8"?>
<!-- Generator: Adobe Illustrator 22.0.1, SVG Export Plug-In . SVG Version: 6.00 Build 0)  -->
<svg version="1.1" id="Layer_1" xmlns="http://www.w3.org/2000/svg" xmlns:xlink="http://www.w3.org/1999/xlink" x="0px" y="0px"
	 viewBox="0 0 36.2 36" style="enable-background:new 0 0 36.2 36;" xml:space="preserve">
<style type="text/css">
	.st0{fill:#FBF7F0;}
	.st1{clip-path:url(#SVGID_3_);}
	.st2{opacity:0.32;fill:none;stroke:#FBF7F0;stroke-miterlimit:10;enable-background:new    ;}
</style>
<g>
	<g>
		<g>
			<path id="SVGID_1_" class="st0" d="M10.7,16.8c-0.5-0.8-0.7-1.6-0.6-2.5L7.2,19c-1.1,1.7-0.5,4,1.1,5c1.7,1.1,4,0.5,5-1.1
				l0.6-0.9L10.7,16.8z"/>
		</g>
		<g>
			<defs>
				<path id="SVGID_2_" d="M10.7,16.8c-0.5-0.8-0.7-1.6-0.6-2.5L7.2,19c-1.1,1.7-0.5,4,1.1,5c1.7,1.1,4,0.5,5-1.1l0.6-0.9L10.7,16.8
					z"/>
			</defs>
			<use xlink:href="#SVGID_2_"  style="overflow:visible;fill:#FBF7F0;"/>
			<clipPath id="SVGID_3_">
				<use xlink:href="#SVGID_2_"  style="overflow:visible;"/>
			</clipPath>
			<g class="st1">
				<rect x="-9.2" y="-13.1" class="st0" width="57.9" height="41.6"/>
				<ellipse class="st0" cx="30.4" cy="9.4" rx="18.4" ry="18.4"/>
				<ellipse class="st0" cx="14.8" cy="5.2" rx="18.4" ry="18.4"/>
				<ellipse class="st0" cx="9.2" cy="10.2" rx="18.4" ry="18.4"/>
			</g>
		</g>
	</g>
</g>
<g>
	<path class="st0" d="M29,19l-2.9-4.7c0,0.9-0.1,1.7-0.6,2.5l-3.2,5.2l0.6,0.9c1.1,1.7,3.3,2.2,5,1.1C29.5,22.9,30,20.6,29,19z"/>
</g>
<g>
	<path class="st0" d="M20.8,22.5l3.9-6.2c0.4-0.7,0.6-1.6,0.4-2.4c-0.2-0.8-0.7-1.5-1.4-2c-0.5-0.3-1.1-0.5-1.7-0.5
		c-1.1,0-2.2,0.6-2.7,1.5l-1.1,1.9L17,12.9c-0.6-1-1.6-1.5-2.7-1.5c-0.6,0-1.2,0.2-1.7,0.5c-0.7,0.4-1.2,1.1-1.4,2
		c-0.2,0.8,0,1.7,0.4,2.4l3.9,6.2c0.6,0.9,1.6,1.5,2.7,1.5h0h0C19.2,24,20.3,23.4,20.8,22.5z"/>
</g>
<circle class="st2" cx="18.1" cy="18" r="14.8"/>
</svg>
