<?xml version="1.0" encoding="utf-8"?>
<!-- Generator: Adobe Illustrator 22.0.1, SVG Export Plug-In . SVG Version: 6.00 Build 0)  -->
<svg version="1.1" id="Layer_1" xmlns="http://www.w3.org/2000/svg" xmlns:xlink="http://www.w3.org/1999/xlink" x="0px" y="0px"
	 viewBox="0 0 36.2 36" style="enable-background:new 0 0 36.2 36;" xml:space="preserve">
<style type="text/css">
	.st0{fill:#FFC300;}
	.st1{fill:#FB406F;}
	.st2{fill:#EE4370;}
	.st3{fill:#3B88E4;}
</style>
<path class="st0" d="M10,9.6c-0.9,0.6-1.5,1.5-1.8,2.6c-0.3,1.2-0.1,2.4,0.5,3.4l5.4,8.7c0.8,1.3,2.2,2,3.7,2.1c0,0,0.3,0,0.4,0
	C17.1,20.1,14.1,14.3,10,9.6z"/>
<path class="st1" d="M33.4,19.4l-4.1-6.5c0.1,1.2-0.2,2.4-0.9,3.5l-4.5,7.2l0.8,1.2c1.5,2.4,4.6,3.1,7,1.6S34.9,21.7,33.4,19.4z"/>
<path class="st0" d="M11.6,24.8l0.8-1.2l-4.5-7.3c-0.6-1.1-1-2.3-0.9-3.5l-4.1,6.5c-1.5,2.4-0.8,5.5,1.6,7
	C6.8,27.9,10,27.1,11.6,24.8z"/>
<path class="st2" d="M18.3,26.4"/>
<path class="st1" d="M28,12.3c-0.3-1.2-1-2.1-2-2.8C25.6,9.2,25,9,24.6,9c1.1,2.3,2,4.7,2.6,7.3l0.4-0.5C28,14.6,28.2,13.4,28,12.3z
	"/>
<path class="st3" d="M27.4,17.9l-3.6,5.6l0.8,1.2c0.8,1.2,2,2,3.3,2.3c0.1-0.8,0.1-1.6,0.1-2.4C28,22.4,27.9,20.1,27.4,17.9z"/>
<g>
	<path class="st3" d="M10,9.6"/>
	<path class="st3" d="M24.5,8.9c-0.3-0.1-0.6-0.1-0.9-0.1c-1.6,0-3,0.8-3.8,2.1l-1.6,2.6l-1.6-2.6c-0.8-1.3-2.2-2.1-3.8-2.1
		c-0.8,0-1.7,0.3-2.4,0.7c-0.1,0-0.2,0.1-0.3,0.1c4.1,4.7,7,10.4,8.4,16.8c1.5-0.1,2.8-0.9,3.6-2.1l5.1-8.2
		C26.4,13.6,25.6,11.2,24.5,8.9z"/>
</g>
</svg>
