<?xml version="1.0" encoding="utf-8"?>
<!-- Generator: Adobe Illustrator 22.0.1, SVG Export Plug-In . SVG Version: 6.00 Build 0)  -->
<svg version="1.1" id="Layer_1" xmlns="http://www.w3.org/2000/svg" xmlns:xlink="http://www.w3.org/1999/xlink" x="0px" y="0px"
	 viewBox="0 0 36.2 36" style="enable-background:new 0 0 36.2 36;" xml:space="preserve">
<style type="text/css">
	.st0{fill:#FBF7F0;}
</style>
<path class="st0" d="M13.3,26.5c8.2,0,12.7-6.8,12.7-12.7c0-0.2,0-0.4,0-0.6c0.9-0.6,1.6-1.4,2.2-2.3c-0.8,0.4-1.7,0.6-2.6,0.7
	c0.9-0.6,1.6-1.4,2-2.5c-0.9,0.5-1.8,0.9-2.8,1.1c-1.7-1.8-4.5-1.9-6.3-0.2c-1.2,1.1-1.6,2.7-1.3,4.3c-3.6-0.2-6.9-1.9-9.2-4.7
	c-1.2,2-0.6,4.6,1.4,5.9c-0.7,0-1.4-0.2-2-0.6c0,0,0,0,0,0.1c0,2.1,1.5,3.9,3.6,4.4c-0.7,0.2-1.3,0.2-2,0.1c0.6,1.8,2.3,3.1,4.2,3.1
	c-1.6,1.2-3.5,1.9-5.5,1.9c-0.4,0-0.7,0-1.1-0.1C8.6,25.8,10.9,26.5,13.3,26.5"/>
</svg>
