<?xml version="1.0" encoding="utf-8"?>
<!-- Generator: Adobe Illustrator 23.0.1, SVG Export Plug-In . SVG Version: 6.00 Build 0)  -->
<svg version="1.1" id="Layer_1" xmlns="http://www.w3.org/2000/svg" xmlns:xlink="http://www.w3.org/1999/xlink" x="0px" y="0px"
	 viewBox="0 0 36.2 36" style="enable-background:new 0 0 36.2 36;" xml:space="preserve">
<style type="text/css">
	.st0{fill:#FFFFFF;}
</style>
<polygon class="st0" points="12,28.4 7.6,28.4 7.6,14.3 11.9,14.3 11.9,28.4 "/>
<path class="st0" d="M9.8,12.3c-1.4,0-2.5-1.1-2.5-2.5s1.1-2.5,2.5-2.5s2.5,1.1,2.5,2.5S11.2,12.3,9.8,12.3z"/>
<path class="st0" d="M28.4,28.4H24v-6.9c0-1.6,0-3.8-2.3-3.8s-2.6,1.8-2.6,3.6v7h-4.4v-14h4.2v1.9h0.1c0.6-1.1,2-2.3,4.2-2.3
	c4.4,0,5.2,2.9,5.2,6.7V28.4z"/>
</svg>
